<svg width="247" height="157" viewBox="0 0 247 157" fill="none" xmlns="http://www.w3.org/2000/svg">
<mask id="mask0" mask-type="alpha" maskUnits="userSpaceOnUse" x="0" y="0" width="247" height="157">
<rect x="246.5" y="155.687" width="246" height="154.927" transform="rotate(-180 246.5 155.687)" fill="#FF71AC" stroke="white"/>
</mask>
<g mask="url(#mask0)">
<g opacity="0.1">
<path d="M76.9185 49.4527L123.216 24.4922L169.514 49.4527V99.3736L123.216 124.334L76.9185 99.3736V49.4527Z" fill="white"/>
<path d="M-15.6765 72.1442L3.20802 61.9331L22.0926 72.1442V92.5664L3.20802 102.778L-15.6765 92.5664V72.1442Z" fill="white"/>
<path d="M174.397 69.0331L193.282 58.822L212.166 69.0331V89.4553L193.282 99.6664L174.397 89.4553V69.0331Z" fill="white"/>
<path d="M25.7468 74.4126L72.0444 49.4521L118.342 74.4126V124.334L72.0444 149.294L25.7468 124.334V74.4126Z" stroke="white"/>
<path d="M131.323 100.884L158.127 86.4187L184.931 100.884V129.816L158.127 144.282L131.323 129.816V100.884Z" stroke="white"/>
<path d="M5.32239 23.6775L26.3224 11.4551L47.3225 23.6775V48.1222L26.3224 60.3446L5.32239 48.1222V23.6775Z" stroke="white"/>
<path d="M198.49 104.785L219.203 93.7231L239.915 104.785V126.909L219.203 137.971L198.49 126.909V104.785Z" stroke="white"/>
</g>
</g>
</svg>
